<svg width="31" height="29" viewBox="0 0 31 29" fill="none" xmlns="http://www.w3.org/2000/svg">
<path d="M15.4999 1.68414V19.2221" stroke="#201B10" stroke-width="2.5" stroke-miterlimit="10" stroke-linecap="round"/>
<path d="M22.2446 7.87333L16.4623 2.08958C16.2065 1.83648 15.8612 1.69452 15.5013 1.69452C15.1414 1.69452 14.7961 1.83648 14.5403 2.08958L8.75505 7.87333M2.01026 17.1979V23.9427C2.00968 24.3858 2.09654 24.8247 2.26585 25.2342C2.43516 25.6437 2.6836 26.0158 2.99694 26.3292C3.31028 26.6425 3.68236 26.8909 4.09186 27.0602C4.50137 27.2296 4.94026 27.3164 5.38338 27.3158H25.6178C26.0608 27.3162 26.4995 27.2292 26.9088 27.0598C27.3182 26.8904 27.6901 26.642 28.0033 26.3286C28.3164 26.0153 28.5648 25.6433 28.734 25.2339C28.9032 24.8245 28.99 24.3857 28.9894 23.9427V17.1979" stroke="#201B10" stroke-width="2.5" stroke-linecap="round" stroke-linejoin="round"/>
</svg>
