<svg width="50" height="50" viewBox="0 0 50 50" fill="none" xmlns="http://www.w3.org/2000/svg">
<path fill-rule="evenodd" clip-rule="evenodd" d="M25.0001 5C19.6958 5 14.6087 7.10714 10.858 10.8579C7.10726 14.6086 5.00012 19.6957 5.00012 25C5.00012 30.3043 7.10726 35.3914 10.858 39.1421C14.6087 42.8929 19.6958 45 25.0001 45C30.3045 45 35.3915 42.8929 39.1423 39.1421C42.893 35.3914 45.0001 30.3043 45.0001 25C45.0001 19.6957 42.893 14.6086 39.1423 10.8579C35.3915 7.10714 30.3045 5 25.0001 5ZM0.00012207 25C0.00012207 11.1925 11.1926 0 25.0001 0C38.8076 0 50.0001 11.1925 50.0001 25C50.0001 38.8075 38.8076 50 25.0001 50C11.1926 50 0.00012207 38.8075 0.00012207 25Z" fill="white"/>
</svg>
