<svg width="268" height="59" viewBox="0 0 268 59" fill="none" xmlns="http://www.w3.org/2000/svg">
<path d="M161.367 35.895L167.985 25.8718H161.781L154.942 36.2278V25.8718H149.469V47.1559H154.942V37.1499H157.131L161.781 47.1559H167.985L162.753 35.895H161.367Z" fill="#FF5F00"/>
<path d="M146.389 25.8718H140.916V43.8087H137.718V25.8718H132.245V43.8087H129.048V25.8718H123.575V43.8087H123.569L123.575 43.9757V47.1559H123.691H129.048H132.245H137.718H140.916H146.389H146.512L146.389 43.8087V25.8718Z" fill="#FF5F00"/>
<path d="M199.187 25.8718H196.45H195.59H192.964H191.046L186.182 47.1559H192.386L195.764 29.4646H196.276L199.654 47.1559H205.859L200.995 25.8718H199.187Z" fill="#FF5F00"/>
<path d="M231.385 25.8719H222.469L212.636 33.1557V25.8719H207.164V47.156H212.636V43.9942C213.867 46.3493 216.231 47.8326 218.946 47.8326C222.931 47.8326 226.165 44.4056 226.165 40.1841C226.165 36.5336 223.753 33.4823 220.529 32.7161L225.687 29.4647H227.519V47.1548H232.992V25.8707H231.387L231.385 25.8719ZM221.804 39.7654C221.804 41.6723 220.346 43.217 218.557 43.217C216.768 43.217 215.31 41.6723 215.31 39.7654C215.31 37.8585 216.768 36.32 218.557 36.32C220.346 36.32 221.804 37.8647 221.804 39.7654Z" fill="#FF5F00"/>
<path d="M176.477 25.1634C170.709 25.1634 166.03 30.129 166.03 36.2451C166.03 42.3611 170.71 47.3144 176.477 47.3144C182.245 47.3144 186.925 42.355 186.925 36.2451C186.925 30.1351 182.238 25.1634 176.477 25.1634ZM176.477 41.3653C173.808 41.3653 171.644 39.0704 171.644 36.2402C171.644 33.4099 173.808 31.115 176.477 31.115C179.146 31.115 181.311 33.4099 181.311 36.2402C181.311 39.0704 179.146 41.3653 176.477 41.3653Z" fill="#FF5F00"/>
<path d="M123.834 29.6468C118.908 37.7079 110.256 45.3195 106.554 45.3195C105.248 45.3195 104.631 44.3925 104.516 42.9092C110.235 41.1975 117.087 31.1473 117.087 23.9433C117.087 21.1929 116.079 19.3289 113.975 19.3289C108.662 19.3289 101.086 34.6136 101.086 42.6992C101.086 46.5265 102.383 49.2709 105.624 49.2709C110.795 49.2709 118.654 43.8866 126.974 31.7834L123.831 29.6481L123.834 29.6468ZM114.234 22.3127L114.536 22.8788C114.069 23.2299 113.731 23.5185 113.313 23.974C113.313 29.1103 109.088 36.5156 105.027 38.7749C106.567 32.6797 111.121 24.2491 114.234 22.3127Z" fill="#CB81FF"/>
<path d="M97.9705 26.8477C97.1925 28.557 92.1049 37.5303 88.7586 41.4411C90.1526 35.9218 92.7197 28.6957 93.9419 25.2232L89.8029 25.0698L85.2099 39.5612C84.6626 41.2901 83.2416 46.5761 87.2211 46.57C91.0337 46.5639 98.0011 34.6018 99.0282 31.1257L99.8896 31.2546C98.9055 33.9007 96.8452 37.9245 95.6525 39.1929L93.9431 47.2416H97.903L102.565 27.668C103.314 24.5111 99.908 22.5858 97.9717 26.849L97.9705 26.8477Z" fill="#CB81FF"/>
<path d="M83.15 25.0455L80.9608 32.9027C79.6466 34.1515 77.7888 35.151 76.369 35.5586L79.2883 25.0443H75.4143L69.3206 47.2395H73.1945L75.137 39.5714C77.5286 39.1563 79.8663 38.0819 81.9265 35.6348L82.302 36.4157C81.1154 37.9358 79.9595 38.5817 79.0735 39.0188L76.9519 47.2395H80.8933L87.03 25.0443H83.15V25.0455Z" fill="#CB81FF"/>
<path d="M69.8921 24.9286C68.9877 24.9286 67.9238 25.4271 66.3936 27.7159L60.9171 35.8997L62.9369 30.4295C63.964 27.6545 63.1148 26.1958 61.5724 26.1958C60.3612 26.1958 58.7071 27.2174 56.9916 29.6658L51.3347 37.7268H49.8732C52.4575 33.8577 54.6086 29.527 56.2848 26.208L52.1213 26.2387C51.1433 28.1837 42.4726 43.7201 37.8796 43.7201C37.1163 43.7201 36.5654 43.4242 36.1973 42.9023C42.507 37.6949 48.6461 27.6876 48.6461 22.4605C48.6461 20.4112 47.6988 19.0949 45.4483 19.0949C39.5018 19.0949 32.2828 31.3025 32.2828 39.6411C32.2828 40.1531 32.3074 40.6614 32.3552 41.1587C31.3367 41.8795 30.463 42.2933 29.8532 42.2933C29.2813 42.2933 28.9488 41.8746 28.9488 40.9082C28.9488 35.4196 37.5949 13.9943 42.588 2.6597H37.8403C25.5007 21.3284 15.274 38.0289 4.33447 56.3403H9.14346C12.2308 50.9867 28.8641 21.267 32.8804 16.1836H33.7173C32.5123 17.937 31.8362 19.02 31.1097 20.3068C28.3119 28.4845 25.1264 36.9262 25.1264 41.3134C25.1264 44.2481 26.5596 46.236 29.0862 46.236C30.4262 46.236 31.8914 45.7338 33.3995 44.8694C34.1934 46.3011 35.4463 47.2392 37.2771 47.2392C40.9265 47.2392 44.1979 44.8424 47.0546 41.4915H48.1798L44.312 47.2392H48.8192C51.2918 43.8245 55.2087 37.437 60.2201 31.235L60.8165 31.801L58.0617 35.5547L54.4945 45.6589H58.1169C61.7209 40.6627 64.8561 35.6971 68.5521 30.7438L69.1669 31.2485L66.012 36.0237L63.0179 47.2417H66.8673L71.8972 28.751C72.5672 26.2964 71.448 24.9298 69.8921 24.9298V24.9286ZM45.6079 22.0062L46.1797 22.56C45.5588 22.8805 44.9563 23.2795 44.3476 23.7658C43.5966 28.347 39.6012 34.1647 35.8647 38.0461C36.9814 32.2013 41.5511 23.7105 45.6079 22.005V22.0062Z" fill="#CB81FF"/>
<path d="M85.2351 17.2738L84.0976 13.4404L57.3665 20.9784L58.7568 24.996L85.2351 17.2738Z" fill="#CB81FF"/>
<path d="M28.2156 19.5802C28.0218 19.5802 27.8242 19.5262 27.6499 19.412C27.1665 19.0989 27.0278 18.453 27.3419 17.9693C28.7151 15.8487 33.0295 9.25005 34.8604 6.45416C35.1757 5.97283 35.8224 5.83777 36.3046 6.15333C36.7869 6.4689 36.9207 7.11599 36.6053 7.59855C34.7745 10.392 30.4637 16.9857 29.093 19.1038C28.893 19.412 28.558 19.5802 28.2169 19.5802H28.2156Z" fill="#FCE300"/>
<path d="M34.2243 34.1521C34.12 34.1521 34.0133 34.1362 33.9077 34.103C33.3592 33.9287 33.0549 33.3417 33.2292 32.7929C34.0746 30.1321 37.605 23.2252 38.5265 21.6904C38.8235 21.1968 39.464 21.0371 39.9573 21.3331C40.4506 21.6302 40.6114 22.2712 40.3144 22.7648C39.3241 24.4138 35.968 31.0591 35.2171 33.424C35.0759 33.8685 34.6661 34.1521 34.2231 34.1521H34.2243Z" fill="#FCE300"/>
<path d="M46.5579 37.6729C46.4328 37.6729 46.3039 37.6496 46.18 37.6017C45.6425 37.3929 45.3775 36.7876 45.5861 36.251C46.2058 34.6584 49.5889 29.1244 50.6466 27.4986C50.9608 27.0161 51.6074 26.8798 52.0897 27.1941C52.5719 27.5085 52.7081 28.1556 52.394 28.6381C51.2013 30.4701 48.0292 35.7218 47.5298 37.0074C47.3691 37.4199 46.9752 37.6729 46.5579 37.6729Z" fill="#FCE300"/>
<path d="M68.0347 19.3659C67.5831 19.3659 67.1671 19.0699 67.0333 18.6144C66.8726 18.0606 67.1892 17.4811 67.7426 17.3202L80.0553 13.725C80.6087 13.5641 81.1879 13.8809 81.3486 14.4347C81.5094 14.9885 81.1928 15.568 80.6394 15.7289L68.3267 19.3241C68.2298 19.3523 68.1304 19.3659 68.0347 19.3659Z" fill="#FCE300"/>
<path d="M71.6752 40.8725C71.5783 40.8725 71.4801 40.859 71.3819 40.8308C70.8285 40.6687 70.5119 40.0891 70.6727 39.5366L73.3109 30.4957C73.4729 29.9419 74.0509 29.6239 74.6043 29.786C75.1577 29.9481 75.4743 30.5276 75.3135 31.0802L72.6753 40.1211C72.5428 40.5766 72.1255 40.8725 71.674 40.8725H71.6752Z" fill="#FCE300"/>
<path d="M92.0636 38.6272C91.8157 38.6272 91.5679 38.54 91.3691 38.3608C90.9396 37.9764 90.9028 37.3171 91.2868 36.8873C93.7828 34.0951 96.3695 28.8975 97.2199 27.1895L97.3364 26.9562C97.5941 26.4405 98.2199 26.2317 98.7353 26.4896C99.2507 26.7475 99.4593 27.3749 99.2016 27.8894L99.0863 28.1202C98.2052 29.8908 95.524 35.2788 92.8404 38.2797C92.6342 38.5106 92.3495 38.6272 92.0624 38.6272H92.0636Z" fill="#FCE300"/>
<path d="M109.93 33.7925C109.698 33.7925 109.465 33.7164 109.272 33.558C108.825 33.1946 108.758 32.5364 109.122 32.0895C110.151 30.826 111.557 27.7587 111.898 26.6426C112.066 26.0913 112.65 25.7806 113.2 25.95C113.751 26.1183 114.061 26.7015 113.892 27.2528C113.498 28.5396 112.003 31.8549 110.74 33.407C110.533 33.6599 110.233 33.7913 109.93 33.7913V33.7925Z" fill="#FCE300"/>
<path d="M108.098 45.7849C107.67 45.7849 107.267 45.5184 107.115 45.0911C106.923 44.5484 107.205 43.9517 107.748 43.7577C109.639 43.0848 112.288 41.1435 115.207 38.2936C117.695 35.8636 119.789 33.3366 120.494 32.1922C120.797 31.7023 121.439 31.55 121.93 31.8521C122.42 32.1554 122.572 32.7976 122.27 33.2887C120.791 35.6856 113.534 43.9136 108.448 45.7247C108.333 45.7652 108.215 45.7849 108.098 45.7849Z" fill="#FCE300"/>
<path d="M250.189 32.8826C257.632 32.8826 263.665 26.8489 263.665 19.4059C263.665 11.9629 257.632 5.9292 250.189 5.9292C242.746 5.9292 236.712 11.9629 236.712 19.4059C236.712 26.8489 242.746 32.8826 250.189 32.8826Z" fill="black"/>
<path d="M249.566 19.311H247.956C247.956 20.4098 247.678 21.6481 247.151 22.4838C245.944 21.7719 244.969 20.704 244.164 19.7135C245.913 19.1874 248.033 18.2896 248.033 16.0609C248.033 14.3583 246.826 13.0427 244.721 13.0427C242.462 13.0427 241.27 14.6213 241.27 16.2928C241.27 17.1906 241.517 18.1344 242.044 19.156C240.775 19.8525 240.156 20.9204 240.156 22.1122C240.156 24.1396 242.044 25.4243 244.319 25.4243C245.371 25.4243 246.439 25.0065 247.383 24.2017C248.575 24.8827 249.906 25.2232 251.253 25.2232V23.8768C250.463 23.8459 249.163 23.6138 248.451 23.1649C249.178 22.0352 249.534 20.6267 249.565 19.3112L249.566 19.311ZM244.68 14.3894C245.791 14.3921 246.439 15.2418 246.439 16.0606C246.439 17.2832 244.969 18.0106 243.452 18.5833C243.05 17.7785 242.864 17.0665 242.864 16.3391C242.864 15.3978 243.48 14.3949 244.68 14.3891V14.3894ZM244.319 24.0778C242.973 24.0778 241.75 23.4743 241.75 22.1124C241.75 21.5397 241.951 20.766 242.74 20.2708C243.607 21.4625 244.768 22.5613 246.099 23.4591C245.619 23.8459 245.062 24.0781 244.319 24.0781L244.319 24.0778Z" fill="#F3F4F4"/>
<path d="M255.597 13.0427C254.545 13.0427 253.477 13.4605 252.533 14.2653C251.341 13.5843 250.01 13.2438 248.664 13.2438V14.5902C249.453 14.6211 250.753 14.8532 251.465 15.3021C250.738 16.4318 250.382 17.8402 250.351 19.1558H251.96C251.96 18.057 252.239 16.8187 252.765 15.9829C253.973 16.6949 254.948 17.7628 255.752 18.7532C254.003 19.2793 251.883 20.1771 251.883 22.4059C251.883 24.1082 253.09 25.4238 255.195 25.4238C257.455 25.4238 258.647 23.8452 258.647 22.1737C258.647 21.2759 258.399 20.332 257.873 19.3105C259.142 18.614 259.761 17.5461 259.761 16.3543C259.761 14.3274 257.873 13.0427 255.597 13.0427ZM255.236 24.0776C254.125 24.0749 253.477 23.2252 253.477 22.4064C253.477 21.1837 254.947 20.4564 256.464 19.8837C256.866 20.6885 257.052 21.4005 257.052 22.1278C257.052 23.0692 256.436 24.0721 255.236 24.0778V24.0776ZM257.176 18.1965C256.309 17.0047 255.149 15.9059 253.818 15.0082C254.297 14.6213 254.855 14.3891 255.597 14.3891C256.944 14.3891 258.167 14.9927 258.167 16.3546C258.167 16.9273 257.965 17.701 257.176 18.1962L257.176 18.1965Z" fill="#F3F4F4"/>
</svg>
